<svg width="1115" height="1329" viewBox="0 0 1115 1329" fill="none" xmlns="http://www.w3.org/2000/svg">
<g clip-path="url(#clip0_1_1132)">
<path d="M773.047 1079.75L775.632 1090.09L793.286 1098.92L789.627 1105.6L765.513 1107.11L756.685 1115.29L739.675 1129.73L733.432 1117.23L733.648 1111.85L721.159 1110.98L710.609 1108.4L686.065 1115.51L700.059 1130.59L689.724 1134.9H678.312L667.547 1121.11L663.888 1126.93L668.409 1142.87L678.529 1155.15L670.778 1160.97L682.188 1173.03L692.307 1180.57L692.523 1195.22L673.791 1188.33L679.82 1201.47L666.901 1204.05L674.653 1226.68L661.088 1226.89L644.294 1215.9L636.758 1195.44L633.099 1178.2L625.132 1166.35L614.797 1151.27L613.289 1143.73L609.846 1142.01L609.63 1136.19L598.219 1127.14L596.497 1114.43L598.219 1095.9L601.018 1087.5L597.573 1083.19L593.266 1081.04L587.667 1072.2L578.841 1066.6L559.679 1056.48L547.836 1046.35L529.32 1037.95L512.096 1017.27L516.187 1015.11L506.928 1003.05L506.497 993.349L493.578 988.829L487.335 1001.33L481.307 991.629L481.738 981.499L482.383 981.069L486.905 978.489L470.757 974.179L454.178 984.519L455.255 998.959L452.885 1007.14L459.561 1021.58L478.508 1035.8L488.842 1058.85L511.449 1081.04L527.383 1080.82L532.335 1086.86L526.737 1092.46L544.823 1102.15L559.895 1110.34L577.333 1124.34L579.487 1129.3L575.612 1138.78L564.416 1126.5L546.544 1121.97L538.148 1139.21L552.789 1149.12L550.421 1162.69L541.809 1164.41L531.042 1186.6L522.43 1188.54L522.646 1180.79L526.737 1166.78L531.042 1161.18L523.292 1145.89L517.047 1132.53L508.436 1129.3L502.622 1117.66L489.488 1112.71L480.66 1101.94L465.59 1100.21L449.656 1087.93L431.141 1070.05L417.146 1054.11L410.902 1026.32L400.781 1023.08L384.203 1013.82L374.729 1017.48L363.103 1030.63L354.49 1032.78L336.189 1048.72L295.926 1040.97L266.428 1050.23L264.061 1066.82L265.137 1082.76L245.758 1100.86L219.707 1106.68L217.985 1115.72L205.497 1130.59L197.531 1152.13L205.497 1167L193.655 1178.63L189.349 1195.44L174.062 1200.61L159.636 1220.21L133.799 1220.64L114.206 1220.21L101.503 1229.05L93.7515 1238.53L83.8475 1236.59L76.3125 1227.97L70.4985 1213.32L51.5515 1209.44L43.3695 1216.12L32.6045 1212.46L22.0545 1215.26L25.2835 1195.22L23.3465 1179.28L14.3035 1176.91L9.35151 1167L10.8585 1149.98L19.0395 1140.28L20.5475 1129.51L24.8535 1113.57L24.2075 1102.15L20.3315 1092.24L19.2555 1083.19L20.3315 1063.59L12.1505 1051.52L40.7855 1031.27L65.7615 1036.44L93.1065 1036.23L114.637 1040.97L131.646 1039.46L164.588 1040.32L175.138 1023.52L179.014 965.989L157.913 934.969L142.842 919.887L111.838 908.255L109.685 885.848L136.167 879.17L170.402 887.141L163.943 851.809L183.105 865.167L230.473 840.606L236.501 814.322L254.37 807.859M773.049 1079.75L766.589 1064.02L773.909 1043.98L784.46 1032.35L790.273 998.089L796.518 1000.68L806.206 994.649L805.776 987.109L829.029 949.399L849.482 956.729L883.932 967.289L903.74 966.419L912.783 973.319L914.937 958.449L951.539 945.959L981.25 933.889L992.448 912.133L1015.27 899.636L1019.14 866.459L988.786 847.069L964.456 832.42L922.903 826.387L916.013 805.921L898.143 794.287L890.175 768.865L863.047 770.373L850.344 776.62L845.177 755.292L840.44 743.874L844.315 740.857L860.895 741.934L868.646 734.61L862.831 725.345L849.052 719.313L850.344 713.066L842.162 706.818L829.244 683.766L833.766 674.287L831.612 657.482L811.805 648.865L801.039 653.174L798.24 644.125L776.708 635.077L770.25 613.317L768.528 595.22L758.622 586.387L767.451 574.323L761.422 538.344L775.848 515.508L772.833 508.398L751.734 509.691L729.771 503.012L704.151 508.829L678.313 520.032L680.036 542.653L692.953 556.441L700.49 551.486L698.122 574.322L694.245 603.407L677.883 604.053L661.734 575.831L642.573 588.758L632.453 612.456L631.807 640.032L636.114 670.409L657.429 676.657L666.471 682.258L664.318 691.953L666.041 700.786L628.576 701.432L603.385 697.339L583.792 696.908L582.284 688.291L562.047 682.473L536.424 694.323L504.56 710.48L490.565 720.606L481.091 709.619L458.053 695.831L446.642 705.31L425.971 711.989L426.188 699.493L405.518 691.522L405.303 677.734L399.703 660.283L414.346 634.215L420.374 638.308L425.326 624.304L414.346 618.703L411.977 608.362L418.005 596.298L418.652 576.693L402.288 587.465L395.182 597.805L377.096 600.175L371.284 611.379L367.839 621.504L368.484 658.559L376.882 678.595L377.742 698.416L382.479 711.557L368.484 728.578L364.824 721.037L347.815 722.76L343.725 730.086L326.931 729.008L298.94 743.443L281.285 792.347L270.736 801.396L254.372 807.859M869.507 1258.78L871.013 1258.56L873.813 1252.74L888.453 1252.96L906.971 1245.42L893.19 1256.19L894.698 1260.93L895.343 1262.87L874.458 1272.99L864.554 1269.76L859.818 1259.64L869.505 1258.78M702.857 -64.0272L671.854 -13.1832L638.481 -16.4142L593.698 9.86981L537.716 81.6108L503.698 122.975L454.823 222.939L417.574 290.588L377.312 338.631L323.701 376.333L304.754 404.555L311.212 500.856L318.533 543.513L346.74 563.334L373.867 554.286L414.13 508.612L427.695 533.173L443.197 587.678L460.206 629.905L466.665 664.16L490.349 662.652L501.759 633.783L526.521 637.445L537.932 602.759L545.898 538.343L566.997 529.295L585.731 483.837L566.137 461.001L551.711 431.485L566.568 370.3L605.753 331.521L638.266 294.035L635.034 264.95L654.844 230.695L689.724 216.692L718.145 240.175L720.297 260.857L706.734 270.767L660.012 321.826L641.71 350.479L631.805 376.548L641.71 415.973L637.188 457.553L656.997 471.126L668.839 493.532L701.781 484.914L737.737 469.834L774.555 466.601L818.263 412.742L836.994 387.535L844.745 365.13L814.602 334.106L822.999 303.945L804.698 268.613L818.263 226.602L794.578 168.864L813.526 129.008L782.307 92.8138L785.32 53.3878L801.684 48.2168L836.349 24.9498L813.956 -12.1052L840.224 -28.4792L776.492 -73.7212L740.107 -61.2262L702.857 -64.0272ZM117.437 545.023L101.288 542.007L85.3555 573.246L78.0345 612.24L88.3685 631.199L89.4465 666.1L100.427 649.08L107.102 658.991L99.7815 674.933L104.734 684.628L129.279 690.876L129.709 691.306L143.273 712.85L140.258 732.671L110.115 729.655L106.24 751.845L117.221 769.942L96.1205 780.283L101.719 793.425L133.584 798.811H133.799L115.498 805.921L85.5705 839.529L96.5515 845.992L110.762 833.712L129.709 837.375L143.058 822.509L152.532 828.757L187.196 819.924L214.54 820.139L232.84 803.335L224.659 786.315L234.993 776.621L237.577 755.292L212.818 748.829L207.004 735.471L194.517 696.047L180.521 690.445L162.436 648.218L160.713 644.556L139.827 642.186L158.129 609.224L163.297 578.416L141.12 578.201L120.236 583.371L141.982 541.792L117.437 545.023ZM425.111 649.296L428.125 664.161L449.44 684.197L461.497 655.328L455.038 637.231L425.111 649.296ZM49.1835 672.563L33.6815 688.936L6.12151 716.298L16.6725 750.983L0.0935059 785.884L28.9455 790.84L65.1155 771.235L80.4035 741.289L77.1735 716.728L87.9395 692.814L66.1935 671.055L49.1835 672.563ZM377.096 1072.85L381.833 1091.16L391.091 1096.76L397.767 1075.65L394.322 1051.95L381.188 1062.51L377.096 1072.85ZM885.438 1079.31L861.755 1087.07L837.21 1104.74L798.453 1101.07L789.841 1121.54L758.622 1122.62L736.016 1148.04L748.934 1160.54L739.029 1180.79L753.885 1195.22L765.943 1220.64L788.12 1220.21L807.713 1233.57L821.922 1230.55L826.445 1220.21L848.406 1221.07L864.984 1234.65L895.773 1231.63L909.768 1217.2L926.779 1223.01L939.266 1220.86L931.515 1230.34L939.05 1241.76L934.099 1252.1L936.036 1271.06L935.607 1271.92L925.487 1289.37L918.166 1309.19H925.055L926.994 1305.1L932.375 1304.66L932.591 1314.57L930.008 1318.24L930.224 1318.45L953.046 1328.15L992.878 1302.29L1037.87 1276.66L1045.62 1246.5L1043.69 1228.18L1054.88 1221.94L1065.22 1205.99L1074.05 1202.11L1097.73 1205.35L1104.83 1211.81L1114.52 1207.5L1103.54 1187.03L1107.42 1179.06L1101.17 1148.9L1114.95 1141.36L1106.99 1133.61L1091.92 1127.14L1093.85 1114L1090.41 1104.52L1070.81 1091.16L1049.07 1092.46L1024.95 1106.68L1007.51 1104.31L983.833 1108.4L954.552 1098.06L919.028 1078.67L885.438 1079.31ZM369.346 1108.4L374.083 1123.7L374.729 1155.8L382.48 1162.69L390.878 1153.86L400.135 1155.58L402.935 1120.46L390.661 1101.29L380.543 1109.69L369.346 1108.4ZM503.699 1182.51L483.03 1185.31L459.13 1182.94L456.331 1196.3L484.751 1209.23L495.087 1212.03L510.589 1221.5L514.895 1208.58L511.88 1200.61L519.201 1180.36L503.699 1182.51ZM706.734 1260.07L706.518 1264.38L735.799 1262.22L738.383 1254.9L727.188 1257.7L727.833 1253.39L712.547 1251.67L696.828 1253.17L685.633 1244.77L681.974 1255.33L706.734 1260.07Z" stroke="#C99C23" stroke-width="2" stroke-linecap="round" stroke-linejoin="round"/>
</g>
<path d="M179.874 996.37C198.9 996.37 214.323 980.937 214.323 961.9C214.323 942.863 198.9 927.43 179.874 927.43C160.848 927.43 145.425 942.863 145.425 961.9C145.425 980.937 160.848 996.37 179.874 996.37Z" fill="#1F1F1F" fill-opacity="0.7" stroke="#C99C23" stroke-width="1.11658"/>
<path d="M179.874 970.517C184.63 970.517 188.486 966.659 188.486 961.9C188.486 957.14 184.63 953.282 179.874 953.282C175.118 953.282 171.262 957.14 171.262 961.9C171.262 966.659 175.118 970.517 179.874 970.517Z" fill="#C99C23"/>
<path d="M313.449 1077.8C332.475 1077.8 347.898 1062.36 347.898 1043.32C347.898 1024.29 332.475 1008.85 313.449 1008.85C294.423 1008.85 279 1024.29 279 1043.32C279 1062.36 294.423 1077.8 313.449 1077.8Z" fill="#1F1F1F" fill-opacity="0.7" stroke="#C99C23" stroke-width="1.11658"/>
<path d="M313.449 1051.94C318.206 1051.94 322.062 1048.08 322.062 1043.32C322.062 1038.57 318.206 1034.71 313.449 1034.71C308.693 1034.71 304.837 1038.57 304.837 1043.32C304.837 1048.08 308.693 1051.94 313.449 1051.94Z" fill="#C99C23"/>
<path d="M153.449 813.795C172.475 813.795 187.898 798.362 187.898 779.325C187.898 760.287 172.475 744.854 153.449 744.854C134.423 744.854 119 760.287 119 779.325C119 798.362 134.423 813.795 153.449 813.795Z" fill="#F7F2EF" fill-opacity="0.1" stroke="#F7F2EF" stroke-opacity="0.5" stroke-width="1.11658"/>
<path d="M153.449 787.942C158.206 787.942 162.062 784.084 162.062 779.325C162.062 774.565 158.206 770.707 153.449 770.707C148.693 770.707 144.837 774.565 144.837 779.325C144.837 784.084 148.693 787.942 153.449 787.942Z" fill="#F7F2EF" fill-opacity="0.5"/>
<defs>
<clipPath id="clip0_1_1132">
<rect width="1114.86" height="1401.87" fill="white" transform="translate(0.0917969 -73.7197)"/>
</clipPath>
</defs>
</svg>
