<svg width="1115" height="1402" viewBox="0 0 1115 1402" fill="none" xmlns="http://www.w3.org/2000/svg">
<path d="M772.956 1153.47L775.54 1163.81L793.195 1172.64L789.535 1179.32L765.421 1180.83L756.593 1189.01L739.584 1203.45L733.34 1190.95L733.556 1185.57L721.067 1184.7L710.518 1182.12L685.973 1189.23L699.967 1204.31L689.633 1208.62H678.221L667.456 1194.83L663.796 1200.65L668.317 1216.59L678.437 1228.87L670.686 1234.69L682.097 1246.75L692.216 1254.29L692.432 1268.94L673.699 1262.05L679.729 1275.19L666.81 1277.77L674.561 1300.4L660.996 1300.61L644.202 1289.62L636.667 1269.16L633.007 1251.92L625.04 1240.07L614.705 1224.99L613.198 1217.45L609.754 1215.73L609.538 1209.91L598.127 1200.86L596.405 1188.15L598.127 1169.62L600.926 1161.22L597.481 1156.91L593.175 1154.76L587.576 1145.92L578.749 1140.32L559.587 1130.2L547.745 1120.07L529.229 1111.67L512.004 1090.99L516.095 1088.83L506.836 1076.77L506.406 1067.07L493.487 1062.55L487.243 1075.05L481.215 1065.35L481.646 1055.22L482.291 1054.79L486.813 1052.21L470.665 1047.9L454.086 1058.24L455.163 1072.68L452.794 1080.86L459.469 1095.3L478.416 1109.52L488.751 1132.57L511.358 1154.76L527.291 1154.54L532.243 1160.58L526.645 1166.18L544.731 1175.87L559.803 1184.06L577.242 1198.06L579.396 1203.02L575.52 1212.5L564.324 1200.22L546.453 1195.69L538.057 1212.93L552.697 1222.84L550.329 1236.41L541.717 1238.13L530.951 1260.32L522.339 1262.26L522.554 1254.51L526.645 1240.5L530.951 1234.9L523.2 1219.61L516.956 1206.25L508.344 1203.02L502.53 1191.38L489.397 1186.43L480.569 1175.66L465.498 1173.93L449.564 1161.65L431.049 1143.77L417.054 1127.83L410.81 1100.04L400.69 1096.8L384.111 1087.54L374.638 1091.2L363.011 1104.35L354.398 1106.5L336.097 1122.44L295.834 1114.69L266.337 1123.95L263.969 1140.54L265.045 1156.48L245.667 1174.58L219.615 1180.4L217.893 1189.44L205.405 1204.31L197.439 1225.85L205.405 1240.72L193.563 1252.35L189.257 1269.16L173.97 1274.33L159.544 1293.93L133.707 1294.36L114.114 1293.93L101.411 1302.77L93.66 1312.25L83.756 1310.31L76.221 1301.69L70.407 1287.04L51.46 1283.16L43.278 1289.84L32.513 1286.18L21.963 1288.98L25.192 1268.94L23.255 1253L14.212 1250.63L9.25995 1240.72L10.767 1223.7L18.948 1214L20.456 1203.23L24.762 1187.29L24.116 1175.87L20.24 1165.96L19.164 1156.91L20.24 1137.31L12.059 1125.24L40.694 1104.99L65.67 1110.16L93.015 1109.95L114.545 1114.69L131.555 1113.18L164.496 1114.04L175.046 1097.24L178.922 1039.71L157.821 1008.69L142.75 993.607L111.746 981.975L109.593 959.568L136.075 952.89L170.31 960.861L163.851 925.529L183.013 938.887L230.381 914.326L236.409 888.042L254.279 881.579M772.957 1153.47L766.498 1137.74L773.818 1117.7L784.368 1106.07L790.182 1071.81L796.426 1074.4L806.114 1068.37L805.684 1060.83L828.937 1023.12L849.391 1030.45L883.84 1041.01L903.648 1040.14L912.691 1047.04L914.845 1032.17L951.447 1019.68L981.159 1007.61L992.356 985.853L1015.18 973.356L1019.05 940.179L988.695 920.789L964.365 906.14L922.811 900.107L915.921 879.641L898.051 868.007L890.084 842.585L862.955 844.093L850.252 850.34L845.085 829.012L840.349 817.594L844.224 814.577L860.803 815.654L868.554 808.33L862.74 799.065L848.961 793.033L850.253 786.786L842.071 780.538L829.152 757.486L833.674 748.007L831.521 731.202L811.713 722.585L800.947 726.894L798.148 717.845L776.617 708.797L770.158 687.037L768.436 668.94L758.531 660.107L767.359 648.043L761.33 612.064L775.756 589.228L772.741 582.118L751.642 583.411L729.68 576.732L704.059 582.549L678.222 593.752L679.944 616.373L692.862 630.161L700.398 625.206L698.03 648.042L694.154 677.127L677.791 677.773L661.643 649.551L642.481 662.478L632.361 686.176L631.715 713.752L636.022 744.129L657.337 750.377L666.38 755.978L664.227 765.673L665.949 774.506L628.484 775.152L603.294 771.059L583.701 770.628L582.193 762.011L561.955 756.193L536.333 768.043L504.468 784.2L490.473 794.326L480.999 783.339L457.961 769.551L446.55 779.03L425.88 785.709L426.096 773.213L405.426 765.242L405.211 751.454L399.612 734.003L414.254 707.935L420.282 712.028L425.234 698.024L414.254 692.423L411.885 682.082L417.914 670.018L418.56 650.413L402.196 661.185L395.091 671.525L377.005 673.895L371.192 685.099L367.747 695.224L368.393 732.279L376.79 752.315L377.651 772.136L382.388 785.277L368.393 802.298L364.732 794.757L347.724 796.48L343.633 803.806L326.839 802.728L298.849 817.163L281.193 866.067L270.644 875.116L254.28 881.579M869.415 1332.5L870.922 1332.28L873.722 1326.46L888.362 1326.68L906.879 1319.14L893.099 1329.91L894.606 1334.65L895.251 1336.59L874.366 1346.71L864.462 1343.48L859.726 1333.36L869.414 1332.5M702.766 9.69266L671.762 60.5367L638.389 57.3057L593.606 83.5897L537.625 155.331L503.606 196.695L454.731 296.659L417.483 364.308L377.221 412.351L323.609 450.053L304.662 478.275L311.121 574.576L318.441 617.233L346.648 637.054L373.775 628.006L414.038 582.332L427.603 606.893L443.105 661.398L460.114 703.625L466.573 737.88L490.257 736.372L501.668 707.503L526.429 711.165L537.84 676.479L545.807 612.063L566.906 603.015L585.639 557.557L566.045 534.721L551.62 505.205L566.476 444.02L605.662 405.241L638.174 367.755L634.943 338.67L654.752 304.415L689.632 290.412L718.053 313.895L720.206 334.577L706.642 344.487L659.92 395.546L641.618 424.199L631.714 450.268L641.618 489.693L637.097 531.273L656.905 544.846L668.747 567.252L701.69 558.634L737.646 543.554L774.464 540.321L818.171 486.462L836.902 461.255L844.653 438.85L814.511 407.826L822.907 377.665L804.606 342.333L818.171 300.322L794.487 242.584L813.434 202.728L782.215 166.534L785.229 127.108L801.592 121.937L836.257 98.6697L813.865 61.6147L840.133 45.2407L776.401 -0.00134277L740.015 12.4937L702.766 9.69266ZM117.345 618.743L101.196 615.727L85.264 646.966L77.943 685.96L88.277 704.919L89.3549 739.82L100.335 722.8L107.01 732.711L99.69 748.653L104.642 758.348L129.187 764.596L129.617 765.026L143.182 786.57L140.167 806.391L110.023 803.375L106.148 825.565L117.129 843.662L96.029 854.003L101.627 867.145L133.492 872.531H133.708L115.406 879.641L85.479 913.249L96.46 919.712L110.67 907.432L129.617 911.095L142.966 896.229L152.44 902.477L187.104 893.644L214.448 893.859L232.749 877.055L224.567 860.035L234.902 850.341L237.486 829.012L212.726 822.549L206.912 809.191L194.425 769.767L180.43 764.165L162.344 721.938L160.621 718.276L139.736 715.906L158.037 682.944L163.205 652.136L141.028 651.921L120.144 657.091L141.89 615.512L117.345 618.743ZM425.019 723.016L428.033 737.881L449.349 757.917L461.406 729.048L454.946 710.951L425.019 723.016ZM49.092 746.283L33.59 762.656L6.02995 790.018L16.581 824.703L0.00195312 859.604L28.854 864.56L65.024 844.955L80.312 815.009L77.082 790.448L87.848 766.534L66.102 744.775L49.092 746.283ZM377.005 1146.57L381.741 1164.88L391 1170.48L397.675 1149.37L394.23 1125.67L381.096 1136.23L377.005 1146.57ZM885.347 1153.03L861.663 1160.79L837.118 1178.46L798.362 1174.79L789.75 1195.26L758.531 1196.34L735.924 1221.76L748.842 1234.26L738.938 1254.51L753.794 1268.94L765.852 1294.36L788.028 1293.93L807.621 1307.29L821.831 1304.27L826.353 1293.93L848.314 1294.79L864.893 1308.37L895.682 1305.35L909.677 1290.92L926.687 1296.73L939.174 1294.58L931.423 1304.06L938.959 1315.48L934.007 1325.82L935.944 1344.78L935.515 1345.64L925.395 1363.09L918.074 1382.91H924.964L926.902 1378.82L932.284 1378.38L932.5 1388.29L929.916 1391.96L930.132 1392.17L952.954 1401.87L992.786 1376.01L1037.78 1350.38L1045.53 1320.22L1043.6 1301.9L1054.79 1295.66L1065.13 1279.71L1073.96 1275.83L1097.64 1279.07L1104.74 1285.53L1114.43 1281.22L1103.45 1260.75L1107.33 1252.78L1101.08 1222.62L1114.86 1215.08L1106.9 1207.33L1091.83 1200.86L1093.76 1187.72L1090.32 1178.24L1070.72 1164.88L1048.98 1166.18L1024.86 1180.4L1007.42 1178.03L983.742 1182.12L954.461 1171.78L918.936 1152.39L885.347 1153.03ZM369.255 1182.12L373.992 1197.42L374.638 1229.52L382.389 1236.41L390.786 1227.58L400.044 1229.3L402.843 1194.18L390.57 1175.01L380.451 1183.41L369.255 1182.12ZM503.607 1256.23L482.938 1259.03L459.038 1256.66L456.239 1270.02L484.66 1282.95L494.995 1285.75L510.497 1295.22L514.803 1282.3L511.789 1274.33L519.109 1254.08L503.607 1256.23ZM706.642 1333.79L706.427 1338.1L735.708 1335.94L738.292 1328.62L727.096 1331.42L727.742 1327.11L712.455 1325.39L696.737 1326.89L685.542 1318.49L681.882 1329.05L706.642 1333.79Z" stroke="#C99C23" stroke-width="2" stroke-linecap="round" stroke-linejoin="round"/>
</svg>
