<svg width="1300" height="820" viewBox="0 0 1300 820" fill="none" xmlns="http://www.w3.org/2000/svg">
<path d="M165.7 167.1H288.2H450.6H627.8L671.3 156.4L692.8 177.9L743.3 187.1L787.5 186.2L836.7 215.3L856.7 233.3L864 233.9L873.5 244.3L892.7 264.2L894.9 323.7L882 348.3L894.7 355.6L957.9 326.6L953.7 311.7L996.1 307.6L1023.2 277.7L1092 272.9L1107.3 261.3L1133 209.2L1159.1 219.3L1174 277.9L1117.1 306.3L1104.3 339.6L1115.8 344.2L1107.6 360.4L1077.8 365.3L1078.7 369L1047.3 380.7L1047.7 385.4L1029.3 414.4L1023.2 419.9L1022.1 441.6L1015.9 443.4L1001.1 425.5L1005.5 443.9L1013.3 474.8L985.7 520.1L955.7 542.2L923.1 573.6L915 615.7L929.2 656.8L936.4 701.9L917.6 714.2L898.3 683.5L890.9 646.4L864.7 614.5L834.6 613.2L786.8 608.4L768.9 618.6L769 633.8L742.4 634.1L700.1 620.9L657.2 642.5L625.3 670.3L629.4 700.8L595.5 690.7L575.8 655.4L547.8 621L506.7 631.6L486.9 602.9L460.4 579.5L414.8 588.2L310.5 563.1L268.7 562.9L245.6 536.9L227 523.6L203.5 505.9L171.6 446.9L147.2 401L140.9 347.7L144.4 282.8L137.6 201.9L160.6 193.3L171.8 189.5L165.7 167.1Z" stroke="#C99C23" stroke-width="2"/>
<path d="M172.449 503.941C191.475 503.941 206.898 488.508 206.898 469.47C206.898 450.433 191.475 435 172.449 435C153.423 435 138 450.433 138 469.47C138 488.508 153.423 503.941 172.449 503.941Z" fill="#F7F2EF" fill-opacity="0.1" stroke="#F7F2EF" stroke-opacity="0.5" stroke-width="1.11658"/>
<path d="M172.449 478.088C177.206 478.088 181.062 474.229 181.062 469.47C181.062 464.711 177.206 460.853 172.449 460.853C167.693 460.853 163.837 464.711 163.837 469.47C163.837 474.229 167.693 478.088 172.449 478.088Z" fill="#F7F2EF" fill-opacity="0.5"/>
<path d="M931.449 713.941C950.475 713.941 965.898 698.508 965.898 679.47C965.898 660.433 950.475 645 931.449 645C912.423 645 897 660.433 897 679.47C897 698.508 912.423 713.941 931.449 713.941Z" fill="#F7F2EF" fill-opacity="0.1" stroke="#F7F2EF" stroke-opacity="0.5" stroke-width="1.11658"/>
<path d="M931.449 688.088C936.206 688.088 940.062 684.229 940.062 679.47C940.062 674.711 936.206 670.853 931.449 670.853C926.693 670.853 922.837 674.711 922.837 679.47C922.837 684.229 926.693 688.088 931.449 688.088Z" fill="#F7F2EF" fill-opacity="0.5"/>
<path d="M1051.45 425.941C1070.48 425.941 1085.9 410.508 1085.9 391.47C1085.9 372.433 1070.48 357 1051.45 357C1032.42 357 1017 372.433 1017 391.47C1017 410.508 1032.42 425.941 1051.45 425.941Z" fill="#F7F2EF" fill-opacity="0.1" stroke="#F7F2EF" stroke-opacity="0.5" stroke-width="1.11658"/>
<path d="M1051.45 400.088C1056.21 400.088 1060.06 396.229 1060.06 391.47C1060.06 386.711 1056.21 382.853 1051.45 382.853C1046.69 382.853 1042.84 386.711 1042.84 391.47C1042.84 396.229 1046.69 400.088 1051.45 400.088Z" fill="#F7F2EF" fill-opacity="0.5"/>
</svg>
