<svg width="177" height="605" viewBox="0 0 177 605" fill="none" xmlns="http://www.w3.org/2000/svg">
<circle cx="316.762" cy="302.47" r="301.627" stroke="#1F1F1F" stroke-opacity="0.3" stroke-width="1.25156"/>
<foreignObject x="85" y="499" width="72" height="72"><div xmlns="http://www.w3.org/1999/xhtml" style="backdrop-filter:blur(8px);clip-path:url(#bgblur_0_1_944_clip_path);height:100%;width:100%"></div></foreignObject><g data-figma-bg-blur-radius="16">
<rect x="101" y="515" width="40" height="40" rx="20" fill="#1F1F1F" fill-opacity="0.5"/>
<rect x="101.4" y="515.4" width="39.2" height="39.2" rx="19.6" stroke="#1F1F1F" stroke-opacity="0.3" stroke-width="0.8"/>
<path fill-rule="evenodd" clip-rule="evenodd" d="M116.199 531.8C116.199 530.527 116.705 529.306 117.605 528.406C118.505 527.506 119.726 527 120.999 527C122.272 527 123.493 527.506 124.393 528.406C125.294 529.306 125.799 530.527 125.799 531.8L126.599 531.8C127.024 531.8 127.431 531.969 127.731 532.269C128.031 532.569 128.199 532.976 128.199 533.4L128.199 541.4C128.199 541.824 128.031 542.231 127.731 542.531C127.431 542.831 127.024 543 126.599 543L115.399 543C114.975 543 114.568 542.831 114.268 542.531C113.968 542.231 113.799 541.824 113.799 541.4L113.799 533.4C113.799 532.976 113.968 532.569 114.268 532.269C114.568 531.969 114.975 531.8 115.399 531.8L116.199 531.8ZM120.999 528.6C121.848 528.6 122.662 528.937 123.262 529.537C123.862 530.137 124.199 530.951 124.199 531.8L117.799 531.8C117.799 530.951 118.136 530.137 118.737 529.537C119.337 528.937 120.151 528.6 120.999 528.6ZM122.599 536.6C122.599 536.881 122.525 537.157 122.385 537.4C122.245 537.643 122.043 537.845 121.799 537.986L121.799 539C121.799 539.212 121.715 539.416 121.565 539.566C121.415 539.716 121.211 539.8 120.999 539.8C120.787 539.8 120.584 539.716 120.434 539.566C120.284 539.416 120.199 539.212 120.199 539L120.199 537.986C119.894 537.809 119.656 537.538 119.521 537.212C119.386 536.887 119.363 536.526 119.454 536.186C119.545 535.846 119.746 535.545 120.025 535.331C120.305 535.116 120.647 535 120.999 535C121.424 535 121.831 535.169 122.131 535.469C122.431 535.769 122.599 536.176 122.599 536.6Z" fill="#F7F2EF"/>
</g>
<foreignObject x="19" y="414" width="72" height="72"><div xmlns="http://www.w3.org/1999/xhtml" style="backdrop-filter:blur(8px);clip-path:url(#bgblur_1_1_944_clip_path);height:100%;width:100%"></div></foreignObject><g data-figma-bg-blur-radius="16">
<rect x="35" y="430" width="40" height="40" rx="20" fill="#1F1F1F" fill-opacity="0.5"/>
<rect x="35.4" y="430.4" width="39.2" height="39.2" rx="19.6" stroke="#1F1F1F" stroke-opacity="0.3" stroke-width="0.8"/>
<path fill-rule="evenodd" clip-rule="evenodd" d="M50.1993 446.8C50.1993 445.527 50.705 444.306 51.6052 443.406C52.5054 442.506 53.7263 442 54.9993 442C56.2724 442 57.4933 442.506 58.3934 443.406C59.2936 444.306 59.7993 445.527 59.7993 446.8L60.5993 446.8C61.0237 446.8 61.4306 446.969 61.7307 447.269C62.0307 447.569 62.1993 447.976 62.1993 448.4L62.1993 456.4C62.1993 456.824 62.0307 457.231 61.7307 457.531C61.4306 457.831 61.0237 458 60.5993 458L49.3993 458C48.975 458 48.568 457.831 48.2679 457.531C47.9679 457.231 47.7993 456.824 47.7993 456.4L47.7993 448.4C47.7993 447.976 47.9679 447.569 48.2679 447.269C48.568 446.969 48.975 446.8 49.3993 446.8L50.1993 446.8ZM54.9993 443.6C55.848 443.6 56.6619 443.937 57.2621 444.537C57.8622 445.137 58.1993 445.951 58.1993 446.8L51.7993 446.8C51.7993 445.951 52.1365 445.137 52.7366 444.537C53.3367 443.937 54.1506 443.6 54.9993 443.6ZM56.5993 451.6C56.5993 451.881 56.5254 452.157 56.3849 452.4C56.2445 452.643 56.0425 452.845 55.7993 452.986L55.7993 454C55.7993 454.212 55.715 454.416 55.565 454.566C55.415 454.716 55.2115 454.8 54.9993 454.8C54.7871 454.8 54.5837 454.716 54.4336 454.566C54.2836 454.416 54.1993 454.212 54.1993 454L54.1993 452.986C53.8943 452.809 53.6559 452.538 53.5212 452.212C53.3864 451.887 53.3627 451.526 53.4539 451.186C53.5451 450.846 53.7459 450.545 54.0253 450.331C54.3048 450.116 54.6471 450 54.9993 450C55.4237 450 55.8306 450.169 56.1307 450.469C56.4307 450.769 56.5993 451.176 56.5993 451.6Z" fill="#F7F2EF"/>
</g>
<foreignObject x="-16" y="320" width="72" height="72"><div xmlns="http://www.w3.org/1999/xhtml" style="backdrop-filter:blur(8px);clip-path:url(#bgblur_2_1_944_clip_path);height:100%;width:100%"></div></foreignObject><g data-figma-bg-blur-radius="16">
<rect y="336" width="40" height="40" rx="20" fill="#1F1F1F" fill-opacity="0.5"/>
<rect x="0.4" y="336.4" width="39.2" height="39.2" rx="19.6" stroke="#1F1F1F" stroke-opacity="0.3" stroke-width="0.8"/>
<path fill-rule="evenodd" clip-rule="evenodd" d="M15.1993 352.8C15.1993 351.527 15.705 350.306 16.6052 349.406C17.5054 348.506 18.7263 348 19.9993 348C21.2724 348 22.4933 348.506 23.3934 349.406C24.2936 350.306 24.7993 351.527 24.7993 352.8L25.5993 352.8C26.0237 352.8 26.4306 352.969 26.7307 353.269C27.0307 353.569 27.1993 353.976 27.1993 354.4L27.1993 362.4C27.1993 362.824 27.0307 363.231 26.7307 363.531C26.4306 363.831 26.0237 364 25.5993 364L14.3993 364C13.975 364 13.568 363.831 13.2679 363.531C12.9679 363.231 12.7993 362.824 12.7993 362.4L12.7993 354.4C12.7993 353.976 12.9679 353.569 13.2679 353.269C13.568 352.969 13.975 352.8 14.3993 352.8L15.1993 352.8ZM19.9993 349.6C20.848 349.6 21.6619 349.937 22.2621 350.537C22.8622 351.137 23.1993 351.951 23.1993 352.8L16.7993 352.8C16.7993 351.951 17.1365 351.137 17.7366 350.537C18.3367 349.937 19.1506 349.6 19.9993 349.6ZM21.5993 357.6C21.5993 357.881 21.5254 358.157 21.3849 358.4C21.2445 358.643 21.0425 358.845 20.7993 358.986L20.7993 360C20.7993 360.212 20.715 360.416 20.565 360.566C20.415 360.716 20.2115 360.8 19.9993 360.8C19.7871 360.8 19.5837 360.716 19.4336 360.566C19.2836 360.416 19.1993 360.212 19.1993 360L19.1993 358.986C18.8943 358.809 18.6559 358.538 18.5212 358.212C18.3864 357.887 18.3627 357.526 18.4539 357.186C18.5451 356.846 18.7459 356.545 19.0253 356.331C19.3048 356.116 19.6471 356 19.9993 356C20.4237 356 20.8306 356.169 21.1307 356.469C21.4307 356.769 21.5993 357.176 21.5993 357.6Z" fill="#F7F2EF"/>
</g>
<circle cx="19.1426" cy="249.468" r="7.50938" transform="rotate(10.1062 19.1426 249.468)" fill="#C99C23"/>
<circle cx="54.7804" cy="152.12" r="13.1414" transform="rotate(30.1062 54.7804 152.12)" fill="#C99C23" stroke="#C99C23" stroke-width="11.2641"/>
<circle cx="121.564" cy="72.8317" r="7.50938" transform="rotate(50.1062 121.564 72.8317)" fill="#C99C23"/>
<defs>
<clipPath id="bgblur_0_1_944_clip_path" transform="translate(-85 -499)"><rect x="101" y="515" width="40" height="40" rx="20"/>
</clipPath><clipPath id="bgblur_1_1_944_clip_path" transform="translate(-19 -414)"><rect x="35" y="430" width="40" height="40" rx="20"/>
</clipPath><clipPath id="bgblur_2_1_944_clip_path" transform="translate(16 -320)"><rect y="336" width="40" height="40" rx="20"/>
</clipPath></defs>
</svg>
