<svg width="346" height="122" viewBox="0 0 346 122" fill="none" xmlns="http://www.w3.org/2000/svg">
<path d="M233.967 83.368L228.858 83.3873L222.946 105.46L222.979 113.608L234.085 113.566L234.115 121.387L241.334 121.36L241.186 83.3408L237.131 83.3556L233.966 83.3669L233.967 83.368ZM229.666 105.435L229.663 104.621L234.004 92.7418L234.054 105.419L229.666 105.436V105.435Z" fill="#1F1F1F"/>
<path d="M251.127 83.3033L244.545 89.9541L244.588 100.818L251.17 94.1656L251.277 121.323L259.662 121.292L259.513 83.2715L251.127 83.3033Z" fill="#1F1F1F"/>
<path d="M275.864 101.955C275.845 102.053 275.79 102.147 275.699 102.242C275.216 102.925 274.727 103.798 274.244 104.838C274.185 104.956 274.068 105.159 273.883 105.469C273.656 105.85 273.591 105.968 273.572 106.004L273.419 106.332C273.339 106.527 273.27 106.654 273.195 106.738L273.068 106.928L272.961 107.217L272.941 107.246C272.772 107.496 272.68 107.619 272.615 107.685C272.574 107.783 272.467 107.98 272.194 108.474C271.843 109.111 271.787 109.245 271.779 109.271L271.759 109.348L271.716 109.385C271.702 109.41 271.663 109.487 271.584 109.691L271.572 109.716L271.372 110.113L271.351 110.138C270.893 110.689 270.524 111.359 270.253 112.13L270.24 112.164L270.1 112.438C269.767 113.026 269.394 113.747 268.989 114.581C268.543 115.556 268.397 116.024 268.359 116.246L268.38 116.306C268.426 116.389 268.434 116.483 268.434 116.561V116.611L268.417 116.659C268.345 116.853 268.331 116.922 268.329 116.938L268.325 116.977C268.299 117.138 268.228 117.277 268.117 117.39V117.419L268.059 117.495C267.997 117.576 267.811 117.82 267.533 117.821C267.332 117.821 267.158 117.687 267.031 117.56H266.976L266.909 117.429L266.892 117.41V117.395L266.837 117.291V116.909C266.835 116.686 266.875 116.516 266.96 116.391L266.968 116.353C266.972 116.189 267.004 116.034 267.064 115.888C267.085 115.826 267.095 115.793 267.099 115.776V115.764L267.11 115.726C267.323 114.967 267.603 114.136 267.94 113.255L267.945 113.244L280.6 87.5926C280.641 87.528 280.671 87.4735 280.694 87.4293C280.672 87.4293 280.65 87.4293 280.626 87.4293C280.626 87.4293 268.24 87.7447 258.931 89.5282C258.373 89.6349 257.826 89.7472 257.307 89.9185L257.286 89.9242L257.059 89.9809C256.998 89.9934 256.848 90.0274 256.469 90.1239C256.155 90.2044 255.961 90.2532 255.889 90.2713L255.856 90.2793H255.821C255.802 90.2793 255.695 90.2861 255.333 90.4211L255.284 90.4393H255.255C255.221 90.4461 255.124 90.4688 254.845 90.538L254.811 90.547H254.775C254.724 90.547 254.668 90.538 254.494 90.4812L254.429 90.4608L254.294 90.336L254.133 90.2577V89.9775C254.131 89.8016 254.21 89.6462 254.354 89.5396L254.389 89.5169C255.22 89.0721 256.341 88.5763 257.72 88.0442C258.968 87.5677 260.042 87.2772 260.916 87.1785C260.987 87.1399 261.066 87.1195 261.152 87.1184H261.25L261.589 87.0333L261.793 87.2307L261.936 87.5064L261.788 87.6516C261.726 87.714 261.653 87.7674 261.574 87.8116C261.952 87.7515 262.377 87.7027 262.85 87.663H262.873C276.496 86.0542 281.138 86.255 281.138 86.255C281.213 86.1631 281.352 85.96 281.592 85.5187C281.946 84.7154 282.535 83.9575 283.347 83.2677L283.454 83.1758L283.593 83.203C283.751 83.2336 283.957 83.2484 284.207 83.2473H284.295L284.493 83.3823L284.601 83.4867C284.723 83.6046 284.782 83.7317 284.775 83.8645C284.769 83.9813 284.709 84.0902 284.607 84.1708L284.579 84.1935L284.547 84.2082C284.525 84.2184 284.322 84.3285 283.797 85.2475C283.449 85.8443 283.311 86.1472 283.257 86.2958C283.272 86.2958 283.288 86.2958 283.307 86.2958C283.301 86.2958 283.344 86.2913 283.497 86.2527C292.441 85.9918 295.329 87.6278 295.329 87.6278C296.166 88.0839 296.312 88.6886 296.285 89.1175C296.263 89.9786 295.362 90.9498 293.529 92.0867C292.636 92.6505 291.374 93.3403 289.781 94.1368L289.75 94.1504C289.625 94.1947 289.339 94.3286 288.671 94.7109C287.743 95.226 287.654 95.226 287.56 95.226C287.188 95.2271 287.055 95.0048 287.054 94.813C287.054 94.6848 287.131 94.5918 287.19 94.5339L287.224 94.501L287.305 94.4613C287.37 94.4204 287.453 94.3773 287.557 94.3308C287.644 94.2922 287.685 94.2593 287.701 94.2435L287.758 94.1867L287.837 94.1674C287.848 94.164 287.92 94.1448 288.132 94.0336C288.334 93.9292 288.444 93.8849 288.513 93.8634L289.17 93.4754C290.6 92.7606 292.079 91.921 293.565 90.9782C294.689 90.2816 295.281 89.6088 295.328 88.9779C295.052 88.5842 293.755 87.073 282.771 87.3249C282.608 87.6426 282.351 88.2235 282.005 89.0574C281.454 90.3825 281.344 90.6117 281.305 90.6798L280.993 91.4252C280.833 91.811 280.671 92.1513 280.51 92.4372C280.464 92.5598 280.341 92.8377 280.005 93.5899L279.999 93.6024C279.507 94.5736 279.124 95.3735 278.861 95.9816C278.593 96.5478 278.332 97.081 278.082 97.5757L275.866 101.948L275.864 101.955Z" fill="#C99C23"/>
<path d="M310.913 102.615L310.862 102.567C310.811 102.518 310.719 102.46 310.579 102.461H310.397L310.183 102.63L310.159 102.652C307.497 105.275 305.071 106.93 302.947 107.57C302.758 107.617 302.567 107.641 302.38 107.641C302.228 107.641 302.119 107.613 302.088 107.565L302.08 107.553C301.928 107.34 301.891 107.202 301.889 107.121C301.998 105.682 302.299 105.508 302.366 105.484C303.199 105.173 304.093 104.614 305.027 103.818C305.985 102.982 306.614 102.191 306.896 101.468L306.92 101.406L306.913 101.34C306.818 100.362 306.201 100.218 305.841 100.22C304.951 100.223 303.992 100.88 302.907 102.231C302.216 103.107 301.689 103.909 301.331 104.63C300.462 105.231 299.311 105.807 297.883 106.353C298.287 105.702 298.655 104.973 298.979 104.186C299.397 103.215 299.628 102.326 299.663 101.545C299.681 101.334 299.642 101.055 299.543 100.691L299.525 100.643C299.331 100.244 298.989 100.036 298.535 100.037C297.623 100.04 296.609 100.604 295.433 101.764C294.409 102.809 293.473 103.928 292.644 105.102C292.422 105.445 292.193 105.807 291.959 106.186C292.078 105.918 292.165 105.714 292.22 105.572L292.534 104.849L293.04 103.824L293.602 102.633C294.303 101.041 294.942 99.7158 295.506 98.6822C295.586 98.866 295.752 98.9295 295.821 98.9488L295.949 98.984L296.061 98.9114C296.216 98.8104 296.28 98.6164 296.315 98.4802L296.324 98.4462V98.411C296.322 97.8698 296.395 97.399 296.546 97.0019C296.591 96.868 296.613 96.7137 296.613 96.5447C296.613 96.3132 296.513 96.1816 296.431 96.1135C296.309 96.0125 296.146 95.9751 295.948 96.0012C295.807 96.008 295.653 96.0636 295.47 96.1771L295.432 96.2009L295.403 96.2338C294.874 96.8453 294.303 97.7598 293.709 98.9499L293.163 100.029C292.886 100.576 292.781 100.785 292.743 100.884L291.817 102.713L291.811 102.725C291.713 102.944 291.623 103.139 291.543 103.31C290.121 103.619 288.538 104.432 286.829 105.738L285.419 106.868L286.782 103.821C286.929 103.514 287.041 103.228 287.115 102.971C287.224 102.662 287.212 102.367 287.078 102.096C287.014 101.913 286.855 101.683 286.462 101.565L286.414 101.55L286.362 101.553C285.914 101.574 285.474 101.735 285.052 102.033C283.252 103.333 281.187 104.95 278.915 106.84C278.685 106.996 278.403 107.188 278.077 107.407C278.006 107.452 277.942 107.492 277.885 107.527C278.773 105.926 280.15 103.885 281.986 101.448C282.301 101.044 282.61 100.794 282.905 100.705C283.103 100.653 283.223 100.493 283.223 100.286C283.223 100.137 283.169 100.003 283.066 99.8984C282.918 99.7328 282.701 99.65 282.421 99.6511C282.26 99.6511 282.157 99.6692 282.077 99.7078L282.064 99.7146C281.422 100.069 280.626 100.788 279.629 101.916C278.662 103.047 277.79 104.246 277.034 105.488C276.255 106.845 275.886 107.89 275.908 108.686V108.729L275.923 108.77C276.04 109.109 276.337 109.514 277.088 109.51C277.331 109.51 277.54 109.462 277.708 109.37C279.047 108.689 280.509 107.627 282.053 106.212C283.479 104.913 284.669 103.926 285.6 103.27C285.557 103.402 285.498 103.57 285.418 103.784L283.429 108.32C283.282 108.624 283.048 108.953 282.733 109.298C279.555 112.378 277.031 115.599 275.23 118.873C274.886 119.514 274.733 120.097 274.775 120.605L274.777 120.625C274.835 121.007 275.113 121.234 275.523 121.233C275.809 121.233 276.124 121.089 276.488 120.794C277.914 119.601 279.354 117.878 280.769 115.671C282.194 113.475 283.367 111.327 284.258 109.284C284.332 109.108 284.446 108.944 284.59 108.802C287.088 106.494 289.271 104.984 291.083 104.307L290.829 104.879C290.384 105.757 290.006 106.566 289.706 107.284L289.07 108.776C287.461 112.277 286.628 114.614 286.521 115.922C286.496 116.269 286.671 116.545 287.014 116.698L287.072 116.724H287.136C287.379 116.723 287.586 116.636 287.738 116.472C287.854 116.348 287.963 116.184 288.064 115.985C288.173 115.771 288.219 115.722 288.223 115.717L288.258 115.681L290.116 111.824C290.715 110.606 291.118 109.803 291.312 109.436C291.541 109.001 292.024 108.164 292.745 106.949C293.326 105.976 293.905 105.098 294.463 104.34C294.967 103.673 295.584 103.003 296.3 102.349C297.017 101.693 297.686 101.251 298.29 101.034L298.298 101.031C298.312 101.028 298.352 101.024 298.433 101.024C298.615 101.024 298.67 101.072 298.681 101.247C298.682 101.3 298.692 101.344 298.706 101.382C298.623 102.305 298.542 102.693 298.486 102.856L298.482 102.873C298.276 103.637 297.909 104.51 297.384 105.477C296.923 106.389 296.462 106.936 296.024 107.101C295.579 107.254 295.071 107.544 294.466 107.992C293.906 108.429 293.546 108.835 293.363 109.236C293.276 109.436 293.28 109.636 293.373 109.816L293.383 109.835C293.445 109.935 293.599 110.103 293.928 110.102C294.316 110.1 294.804 109.825 295.456 109.24C296.061 108.734 296.511 108.264 296.791 107.839C296.935 107.643 297.169 107.483 297.479 107.366C298.809 106.904 299.873 106.471 300.641 106.078C300.708 106.043 300.774 106.007 300.841 105.971C300.726 106.507 300.723 107.026 300.834 107.515C300.922 107.898 301.139 108.211 301.477 108.444C301.804 108.67 302.19 108.782 302.627 108.781C302.913 108.781 303.23 108.709 303.567 108.573C306.08 107.573 308.538 105.781 310.874 103.251C310.983 103.14 311.006 103.026 311.006 102.95C311.006 102.899 310.995 102.851 310.936 102.677L310.914 102.611L310.913 102.615ZM304.161 102.484C304.775 101.803 305.36 101.376 305.902 101.211C305.75 101.829 305.113 102.529 304.002 103.294L303.179 103.797C303.441 103.36 303.769 102.921 304.16 102.484H304.161ZM276.326 119.515L276.319 119.522C276.212 119.641 276.089 119.751 275.951 119.852C276.489 118.506 277.259 117.149 278.247 115.812C279.19 114.532 280.393 113.113 281.831 111.581C280.008 114.952 278.158 117.617 276.326 119.515Z" fill="#C99C23"/>
<path d="M345.693 87.3858C345.571 86.5292 345.126 85.7997 344.369 85.2165C343.643 84.6572 342.743 84.2465 341.694 83.9957C341.496 83.922 341.187 83.8437 340.751 83.7563L340.74 83.7541C340.632 83.7371 340.518 83.72 340.4 83.7019C340.266 83.6826 340.212 83.6678 340.191 83.661C340.099 83.6315 340.045 83.6213 339.992 83.6213H339.924L339.882 83.6417C339.866 83.644 339.828 83.6474 339.751 83.6486C339.741 83.6486 339.679 83.6474 339.445 83.6134C339.263 83.5873 339.135 83.5748 339.048 83.5725C338.668 83.5215 338.65 83.5215 338.622 83.5215H338.419L338.335 83.5646C338.308 83.5691 338.24 83.5759 338.085 83.5759C338.075 83.5759 338.028 83.5759 337.894 83.5646C337.77 83.5555 337.699 83.551 337.655 83.551L336.742 83.5544C336.595 83.5544 336.486 83.5669 336.403 83.5907C336.274 83.6168 336.203 83.627 336.162 83.6327L336.139 83.61H336.017C335.573 83.6122 335.241 83.6406 335.003 83.6962C334.797 83.7155 334.494 83.7518 334.103 83.804C331.07 84.1841 328.645 84.8001 326.892 85.6352L326.547 85.7486C326.35 85.8144 326.244 85.8576 326.181 85.8905C326.028 85.9165 325.888 85.9687 325.765 86.0448C325.229 86.2751 324.833 86.4668 324.557 86.6291L323.655 87.0738L323.609 87.1022C323.327 87.3155 322.952 87.5163 322.494 87.7001C320.93 88.3468 318.971 89.8149 316.67 92.0648C316.06 92.6661 315.631 93.5828 315.394 94.7854C315.332 95.077 315.353 95.3981 315.458 95.7419C315.805 96.8401 316.785 97.8465 318.369 98.7303C319.056 99.1161 319.966 99.5835 321.073 100.119C322.467 100.812 323.415 101.292 323.893 101.551C324.577 101.908 325.409 102.429 326.365 103.097C327.183 103.67 327.879 104.257 328.436 104.844C328.422 104.855 328.409 104.866 328.395 104.877C326.156 105.819 324.358 106.614 323.047 107.244C322.978 107.272 322.825 107.344 322.356 107.598C322.014 107.784 321.793 107.901 321.685 107.955C321.449 108.037 321.069 108.233 320.529 108.553C317.11 110.373 314.728 111.945 313.451 113.22C312.732 113.911 312.389 114.587 312.432 115.23L312.439 115.339L312.497 115.394C312.51 115.417 312.541 115.478 312.606 115.617C312.705 115.832 312.787 115.962 312.868 116.042L312.879 116.052C313.462 116.558 314.412 116.802 315.796 116.796C316.976 116.755 318.342 116.544 319.854 116.169C321.506 115.776 323.116 115.28 324.64 114.694C326.302 114.05 327.717 113.28 328.841 112.404C330.055 111.465 330.748 110.473 330.898 109.456L330.901 109.432C330.906 109.403 330.923 109.302 330.988 108.97C331.075 108.52 331.085 108.364 331.084 108.284V108.26C330.987 107.252 330.668 106.311 330.135 105.464C330.11 105.403 330.061 105.327 329.975 105.203C329.973 105.201 329.972 105.197 329.969 105.195C330.942 104.816 332.636 104.283 335.018 103.606C337.564 102.882 339.111 102.432 339.614 102.272L341.376 101.712L339.526 101.719C339.526 101.719 339.512 101.718 339.479 101.706C339.305 101.652 339.11 101.647 338.914 101.737L335.913 102.502C334.729 102.786 333.462 103.12 332.14 103.492C331.191 103.778 330.263 104.107 329.378 104.47L329.363 104.458C327.499 102.634 324.814 100.845 321.386 99.141C320.054 98.4535 319.11 97.9384 318.576 97.6105C317.864 97.1828 317.333 96.7029 316.994 96.1764C316.612 95.6216 316.524 95.0861 316.723 94.5426C316.972 93.8835 317.488 93.1744 318.255 92.4358C319.109 91.6279 319.913 90.9926 320.652 90.541C321.223 90.1666 321.355 90.0634 321.401 90.0203C321.733 89.7809 322.377 89.3906 323.311 88.8607C327.944 86.3216 332.285 85.01 336.207 84.9601C336.747 84.9578 337.095 84.9476 337.272 84.9295C337.323 84.9283 337.418 84.9238 337.554 84.9147C337.702 84.9057 337.8 84.9011 337.846 84.9011C337.976 84.9011 338.125 84.9215 338.288 84.9635C338.366 84.993 338.466 85.0044 338.625 85.0032L338.673 85.001L338.714 84.9896C338.714 84.9896 338.758 84.9771 338.893 84.976C338.979 84.976 339.186 84.9919 339.691 85.0747C340.278 85.17 340.452 85.1814 340.532 85.1802L342.056 85.634C342.508 85.7747 342.919 86.0345 343.279 86.4067C343.632 86.772 343.843 87.1668 343.908 87.5844C344.004 88.1221 343.947 88.559 343.739 88.8823L343.724 88.9084C343.702 88.9515 343.656 89.0525 343.586 89.2091C343.52 89.3565 343.449 89.4916 343.376 89.613C343.301 89.7366 343.24 89.8297 343.193 89.8909C342.902 90.2733 342.836 90.3663 342.816 90.3958C342.517 90.8054 342.245 91.0924 342.008 91.2479L341.966 91.2751L341.868 91.4033C341.773 91.4986 341.625 91.6574 341.417 91.8889C341.207 92.1215 341.068 92.2724 341.001 92.3382L340.992 92.3473C340.8 92.5538 340.599 92.7523 340.396 92.935C339.702 93.551 339.038 94.1433 338.423 94.6958L338.191 94.8739L338.172 94.8887C337.523 95.4787 336.966 95.8689 336.516 96.0505C336.141 96.2048 335.694 96.5542 335.698 97.3393C335.698 97.6196 335.86 97.8317 336.14 97.9214C336.276 97.9656 336.407 97.9872 336.527 97.9872H336.648L336.733 97.9032C336.798 97.8397 336.851 97.7512 336.903 97.623L336.915 97.5946C336.932 97.5924 336.954 97.5912 336.983 97.5912C337.25 97.5912 337.736 97.4664 339.132 96.5077L340.086 95.7033C340.486 95.3981 340.953 94.9829 341.468 94.4746C341.875 94.0911 342.267 93.7394 342.634 93.4296L342.664 93.4035L342.686 93.3706C342.729 93.3071 342.858 93.146 343.222 92.7444C343.536 92.3983 343.728 92.1725 343.809 92.0534C343.874 91.9581 344.049 91.7289 344.331 91.3727C344.622 91.0039 344.802 90.7702 344.879 90.6568C345.185 90.2029 345.34 89.8943 345.374 89.6686L345.432 89.4972C345.494 89.4053 345.546 89.2873 345.593 89.1364C345.639 88.9912 345.68 88.8437 345.716 88.7008L345.746 88.4773C345.806 88.2538 345.787 87.9032 345.69 87.3801L345.693 87.3858ZM330.105 107.882C330.207 108.64 330.076 109.351 329.718 109.994C328.814 111.592 326.802 112.962 323.736 114.065C320.618 115.199 317.862 115.777 315.544 115.786C314.637 115.79 313.978 115.622 313.585 115.286L313.538 115.259C313.538 115.259 313.531 115.239 313.542 115.186L313.548 115.13C313.546 114.797 313.669 114.489 313.925 114.191C316.868 111.242 321.953 108.332 329.041 105.541C329.618 106.347 329.975 107.135 330.103 107.881L330.105 107.882Z" fill="#C99C23"/>
<path d="M80.6584 41.9102H83.9034C85.3543 41.9102 86.5923 42.4663 87.4918 43.5786L107.359 67.972V41.915H110.347V72.842H107.228C105.777 72.842 104.539 72.2858 103.64 71.1735L83.6036 46.5238V72.8371H80.6536V41.9102H80.6584Z" fill="#1F1F1F"/>
<path d="M141.836 66.0467H119.836L116.886 72.8366H113.385L124.537 47.418C125.988 44.1294 127.569 41.6533 131.627 41.6533C136.071 41.6533 137.652 43.7909 139.316 47.5921L150.507 72.8414H144.781L141.836 66.0515V66.0467ZM140.767 63.5706L134.446 48.9172C133.077 45.972 132.309 45.2852 130.901 45.2852C129.407 45.2852 128.638 45.8849 127.356 48.7431L120.905 63.5658H140.767V63.5706Z" fill="#1F1F1F"/>
<path d="M152.475 59.4266V41.9102H155.977C157.045 41.9102 157.64 42.5098 157.64 43.5786V59.2138C157.64 68.5281 159.522 70.6173 166.568 70.6173C169.518 70.6173 173.957 70.1047 176.138 69.3793C177.164 69.0795 177.42 68.9102 177.42 68.0977V41.9102H182.59V71.4733C178.576 71.4733 173.106 73.3111 166.016 73.3111C155.251 73.3111 152.475 70.3223 152.475 59.4266Z" fill="#1F1F1F"/>
<path d="M197.117 44.6039H186.183V41.915H213.226V44.6039H202.335V72.842H197.122V44.6039H197.117Z" fill="#1F1F1F"/>
<path d="M216.815 41.9102H222.029V72.8371H216.815V41.9102Z" fill="#1F1F1F"/>
<path d="M236.551 44.6039H225.617V41.915H252.661V44.6039H241.77V72.842H236.556V44.6039H236.551Z" fill="#1F1F1F"/>
<path d="M256.243 69.7614V44.9859C256.243 42.8919 257.225 41.9102 259.319 41.9102H281.488V44.599H262.733C261.752 44.599 261.452 45.0681 261.452 45.8806V54.7259H280.588V57.3325H261.452V68.8667C261.452 69.6791 261.752 70.1482 262.733 70.1482H281.488V72.842H259.319C257.225 72.842 256.243 71.8602 256.243 69.7662V69.7614Z" fill="#1F1F1F"/>
<path d="M284.699 57.4191C284.699 43.5346 294.314 39.6899 312.251 42.1273V44.8597C295.121 42.64 289.951 46.2284 289.951 57.4191C289.951 68.6099 295.291 72.0726 312.294 69.8093V72.4982C294.522 75.0178 284.699 71.3036 284.699 57.4191Z" fill="#1F1F1F"/>
<path d="M316.657 41.9102H321.871V54.6388H340.751V41.9102H346.008V72.8371H340.751V57.3325H321.871V72.8371H316.657V41.9102Z" fill="#1F1F1F"/>
<path d="M90.3802 13.5703C90.3802 13.5703 79.3684 25.4285 72.5784 31.6767C65.7257 37.983 58.5247 43.946 50.5548 48.9417C44.6692 52.6316 38.6579 56.1523 32.4435 59.3248C26.113 62.5553 19.357 65.7907 12.2479 67.1061C6.69603 68.1362 0.887852 67.2415 0.0947288 61.0078C0.0753843 62.6714 -0.108388 64.2673 0.0947288 65.8681C1.79704 79.2786 23.3565 68.6488 29.861 65.4764C44.3549 58.4108 57.8476 49.7058 69.7396 39.1098C77.5838 32.1217 90.3754 18.4354 90.3754 18.4354V13.5751L90.3802 13.5703Z" fill="url(#paint0_linear_1_1601)"/>
<path d="M175.264 27.155C169.344 20.6601 160.92 15.5483 150.508 14.5182C142.267 13.7009 130.592 16.414 130.592 16.414C122.366 18.4452 111.746 15.1566 104.439 10.5091C101.087 8.37636 96.8992 7.00774 93.9975 6.90618C86.7772 6.6547 81.2302 10.011 70.76 10.2479C65.4257 10.3688 57.2624 9.44998 44.9883 3.08081C37.0764 -1.02505 29.3918 -0.497912 23.6079 1.6058C23.3467 1.70252 23.1581 1.78957 23.0662 1.87662C23.0469 1.89597 23.042 1.92982 23.0565 1.954C24.401 4.69124 26.4757 7.25438 28.8986 9.09694C33.1157 12.2985 38.2516 12.1727 43.1409 10.4414C43.4601 10.3302 43.7164 10.2238 43.7164 10.2238C43.7164 10.2238 43.4408 10.3108 43.1458 10.3979C42.8508 10.4849 41.5789 10.8525 40.3602 10.8863C38.624 10.9298 37.3328 10.5043 36.6605 10.2238C35.142 9.59506 34.1361 8.84547 33.3962 8.2603C31.8002 7.00774 30.4413 5.46018 29.2854 3.79656C28.7777 3.06147 28.0232 2.12326 27.7331 1.25276C27.7669 1.24309 27.8685 1.20924 28.4585 1.06899C30.7895 0.532181 34.9437 1.27694 37.6858 2.41343C43.4021 4.78313 47.0679 9.64342 49.8728 14.9632C53.3548 21.5645 56.537 27.3243 62.9883 31.2705C63.5445 31.6091 65.034 31.4688 66.3398 31.1883C67.1909 31.0046 68.5257 30.5064 68.6466 30.579C62.4515 26.7875 58.3505 21.342 54.9604 15.0115C53.3741 12.0518 51.1399 8.30866 48.9007 6.28232C59.6272 12.5064 67.7036 13.4881 73.5891 13.1206C82.1829 12.5886 88.0153 8.94219 95.9078 10.2818C103.109 11.5053 108.516 17.831 118.26 19.2721C119.465 19.4511 120.504 19.5768 121.413 19.659C116.099 21.9804 111.001 24.8288 105.73 27.2227C98.2485 30.6177 90.6074 31.8412 82.4199 32.2571C79.5762 32.4022 81.4962 35.6134 84.1947 35.6134C89.7756 35.6134 96.493 34.6752 102.388 32.6247C109.628 30.1099 116.21 26.1007 123.304 23.2426C135.685 18.2517 152.002 14.4215 164.31 21.7144C167.168 23.407 169.712 25.4333 172.207 28.1754C165.113 31.0771 156.596 30.9804 149.057 26.9471C146.397 25.5204 144.883 24.4323 142.934 22.9959C142.499 22.6768 142.064 22.4881 141.551 22.5462C141.3 22.5752 141.063 22.7009 140.898 22.8364C140.54 23.1265 140.386 23.6005 140.405 24.026C140.439 24.6886 140.976 25.1625 141.159 25.3173C151.736 34.3028 164.189 35.0282 174.736 31.6139C175.805 31.2705 177.024 30.7966 177.111 30.3275C177.227 29.7181 176.371 28.3785 175.264 27.1647V27.155Z" fill="url(#paint1_linear_1_1601)"/>
<defs>
<linearGradient id="paint0_linear_1_1601" x1="-3.64359" y1="7.45746" x2="137.063" y2="105.012" gradientUnits="userSpaceOnUse">
<stop offset="0.09" stop-color="#573901"/>
<stop offset="0.14" stop-color="#764F12"/>
<stop offset="0.24" stop-color="#C5873D"/>
<stop offset="0.29" stop-color="#F7AB59"/>
<stop offset="0.36" stop-color="#DD9949"/>
<stop offset="0.53" stop-color="#9C6C22"/>
<stop offset="0.66" stop-color="#744F0A"/>
<stop offset="0.72" stop-color="#654501"/>
<stop offset="0.82" stop-color="#95661E"/>
<stop offset="1" stop-color="#F7AB59"/>
</linearGradient>
<linearGradient id="paint1_linear_1_1601" x1="49.0265" y1="-26.168" x2="162.903" y2="68.3684" gradientUnits="userSpaceOnUse">
<stop offset="0.09" stop-color="#573901"/>
<stop offset="0.14" stop-color="#764F12"/>
<stop offset="0.24" stop-color="#C5873D"/>
<stop offset="0.29" stop-color="#F7AB59"/>
<stop offset="0.36" stop-color="#DD9949"/>
<stop offset="0.53" stop-color="#9C6C22"/>
<stop offset="0.66" stop-color="#744F0A"/>
<stop offset="0.72" stop-color="#654501"/>
<stop offset="0.82" stop-color="#95661E"/>
<stop offset="1" stop-color="#F7AB59"/>
</linearGradient>
</defs>
</svg>
