<svg width="738" height="381" viewBox="0 0 738 381" fill="none" xmlns="http://www.w3.org/2000/svg">
<g clip-path="url(#clip0_1_839)">
<path d="M95.933 210.082V112.437H79.6296V90.1673H137.979V112.437H121.675V210.082H95.933Z" fill="#F7F2EF"/>
<path d="M144.991 210.082V90.1673H170.561V137.276H179.657V90.1673H205.056V210.082H179.657V162.972H170.561V210.082H144.991Z" fill="#F7F2EF"/>
<path d="M243.736 211.795C238.245 211.795 233.211 210.481 228.634 207.855C224.058 205.114 220.397 201.516 217.651 197.062C215.019 192.494 213.704 187.412 213.704 181.816V118.433C213.704 112.837 215.019 107.812 217.651 103.358C220.397 98.7897 224.058 95.1923 228.634 92.5656C233.211 89.8247 238.245 88.4543 243.736 88.4543C249.228 88.4543 254.262 89.8247 258.838 92.5656C263.415 95.1923 267.019 98.7897 269.65 103.358C272.396 107.812 273.769 112.837 273.769 118.433V156.805H239.274V183.529C239.274 184.671 239.675 185.699 240.476 186.613C241.391 187.526 242.478 187.983 243.736 187.983C244.995 187.983 246.024 187.526 246.825 186.613C247.626 185.699 248.027 184.671 248.027 183.529V165.542H273.769V183.7C273.54 188.954 271.995 193.693 269.135 197.919C266.389 202.144 262.785 205.513 258.324 208.026C253.976 210.538 249.114 211.795 243.736 211.795ZM239.274 132.823H248.027V115.007C248.027 113.75 247.626 112.723 246.825 111.923C246.024 111.124 244.995 110.724 243.736 110.724C242.478 110.724 241.391 111.124 240.476 111.923C239.675 112.723 239.274 113.75 239.274 115.007V132.823Z" fill="#F7F2EF"/>
<path d="M344.02 211.795C338.528 211.795 333.837 210.481 329.947 207.855C326.172 205.114 323.311 201.516 321.366 197.062C319.421 192.494 318.449 187.412 318.449 181.816V118.433C318.449 114.321 319.479 110.439 321.538 106.784C323.597 103.129 326.286 99.9318 329.604 97.1909C333.036 94.45 336.812 92.3372 340.931 90.8525C345.049 89.2537 349.168 88.4543 353.287 88.4543C358.893 88.4543 364.327 89.8247 369.59 92.5656C374.853 95.1923 379.201 98.7897 382.633 103.358C386.18 107.812 387.953 112.837 387.953 118.433V130.596H362.554V121.002C362.554 118.376 361.524 116.32 359.465 114.835C357.52 113.237 355.461 112.437 353.287 112.437C351.113 112.437 348.996 113.237 346.937 114.835C344.992 116.32 344.02 118.376 344.02 121.002V178.39C344.02 180.902 345.107 183.129 347.28 185.071C349.454 187.012 351.799 187.983 354.316 187.983C356.948 187.983 359.351 187.012 361.524 185.071C363.698 183.129 364.785 180.902 364.785 178.39V167.426H353.115V143.443H387.953V210.082H364.785V204.086H362.211C361.639 205.57 360.266 206.884 358.092 208.026C356.033 209.168 353.687 210.082 351.056 210.767C348.539 211.452 346.193 211.795 344.02 211.795Z" fill="#F7F2EF"/>
<path d="M423.794 210.082H398.223V90.1673H424.48C430.773 90.1673 436.436 91.652 441.47 94.6213C446.618 97.4764 450.68 101.359 453.655 106.27C456.744 111.181 458.288 116.777 458.288 123.058C458.288 130.025 456.4 135.563 452.625 139.675C448.964 143.786 444.616 146.641 439.582 148.24V150.81C444.616 151.609 448.563 153.95 451.424 157.833C454.398 161.602 455.886 166.513 455.886 172.565V210.253H430.487V172.565C430.487 171.309 430.029 170.281 429.114 169.482C428.198 168.568 427.112 168.112 425.853 168.112H423.794V210.082ZM423.794 133.85H427.054C428.656 133.85 429.972 133.336 431.001 132.309C432.146 131.167 432.718 129.853 432.718 128.369V118.433C432.718 116.834 432.146 115.521 431.001 114.493C429.972 113.351 428.656 112.78 427.054 112.78H423.794V133.85Z" fill="#F7F2EF"/>
<path d="M495.293 211.795C489.801 211.795 484.767 210.481 480.191 207.855C475.614 205.114 471.953 201.516 469.207 197.062C466.576 192.494 465.26 187.412 465.26 181.816V118.433C465.26 112.837 466.576 107.812 469.207 103.358C471.953 98.7897 475.614 95.1923 480.191 92.5656C484.767 89.8247 489.801 88.4543 495.293 88.4543C500.784 88.4543 505.818 89.8247 510.395 92.5656C514.971 95.1923 518.575 98.7897 521.206 103.358C523.952 107.812 525.325 112.837 525.325 118.433V156.805H490.831V183.529C490.831 184.671 491.231 185.699 492.032 186.613C492.947 187.526 494.034 187.983 495.293 187.983C496.551 187.983 497.581 187.526 498.382 186.613C499.183 185.699 499.583 184.671 499.583 183.529V165.542H525.325V183.7C525.096 188.954 523.552 193.693 520.692 197.919C517.946 202.144 514.342 205.513 509.88 208.026C505.532 210.538 500.67 211.795 495.293 211.795ZM490.831 132.823H499.583V115.007C499.583 113.75 499.183 112.723 498.382 111.923C497.581 111.124 496.551 110.724 495.293 110.724C494.034 110.724 492.947 111.124 492.032 111.923C491.231 112.723 490.831 113.75 490.831 115.007V132.823Z" fill="#F7F2EF"/>
<path d="M559.241 211.795C553.749 211.795 548.944 210.481 544.825 207.855C540.821 205.114 537.732 201.516 535.558 197.062C533.384 192.494 532.297 187.412 532.297 181.816V165.028C532.297 159.546 533.613 154.521 536.244 149.953C538.99 145.385 542.651 141.788 547.228 139.161C551.804 136.42 556.838 135.049 562.33 135.049H566.963V113.122C566.963 111.866 566.506 110.838 565.59 110.039C564.675 109.125 563.588 108.668 562.33 108.668C561.186 108.668 560.156 109.125 559.241 110.039C558.325 110.838 557.868 111.866 557.868 113.122V130.596H532.297V118.433C532.297 112.837 533.613 107.812 536.244 103.358C538.99 98.7897 542.651 95.1923 547.228 92.5656C551.804 89.8247 556.838 88.4543 562.33 88.4543C567.936 88.4543 572.97 89.8247 577.432 92.5656C582.008 95.1923 585.612 98.7897 588.243 103.358C590.989 107.812 592.362 112.837 592.362 118.433V210.082H574.343V204.086H572.627C571.482 206.598 569.595 208.54 566.963 209.91C564.332 211.166 561.758 211.795 559.241 211.795ZM562.33 187.983C563.588 187.983 564.675 187.583 565.59 186.784C566.506 185.87 566.963 184.785 566.963 183.529V159.032H562.33C561.186 159.032 560.156 159.489 559.241 160.403C558.325 161.202 557.868 162.23 557.868 163.486V183.529C557.868 184.785 558.325 185.87 559.241 186.784C560.156 187.583 561.186 187.983 562.33 187.983Z" fill="#F7F2EF"/>
<path d="M613.794 210.082V112.437H597.491V90.1673H655.84V112.437H639.536V210.082H613.794Z" fill="#F7F2EF"/>
<path d="M335.342 274.983C332.988 269.692 331.51 264.4 332.103 258.517C332.395 252.935 333.28 247.634 335.05 242.343C335.05 242.343 334.758 242.052 334.758 241.751C333.29 241.751 332.404 242.925 331.519 243.809C325.042 252.333 318.555 261.158 312.077 269.682C306.183 277.623 300.591 284.681 293.812 291.73C289.98 296.137 287.033 298.788 280.847 298.788C279.379 298.788 277.9 297.904 277.015 296.73C275.546 294.671 274.068 292.322 274.36 289.973C275.537 278.216 279.661 266.75 285.846 256.459C287.616 253.809 289.085 250.576 290.563 247.343C293.51 241.76 303.528 222.353 309.704 220.586C310.589 220.586 311.173 220.295 311.766 220.295C315.005 220.295 316.775 222.945 316.473 226.761C313.235 233.227 311.173 239.702 309.403 246.75C309.403 247.343 309.403 247.925 308.517 248.216C306.747 247.624 306.164 245.867 306.456 244.391L307.632 236.45C303.509 240.857 284.368 283.196 283.775 284.963C283.181 286.73 282.89 288.487 284.368 290.254C288.2 288.788 291.147 285.846 294.084 282.905C301.738 274.381 309.111 265.556 316.172 256.44C322.951 247.624 330.012 238.799 337.083 230.275C337.968 229.1 341.498 225.275 342.675 225.275C343.56 225.275 344.144 225.868 345.622 227.334C344.737 229.683 344.153 232.333 342.967 234.974C340.02 241.149 337.958 247.614 337.374 254.381C337.083 256.148 336.781 257.614 337.083 259.09C337.083 260.556 337.374 262.032 337.374 263.206C337.083 264.672 337.083 266.148 336.781 267.323C336.781 267.915 336.781 268.206 337.073 268.789C337.666 270.255 338.542 272.022 339.135 273.488C339.728 273.779 340.312 274.08 340.905 274.08C341.197 274.08 341.498 273.789 342.082 273.789C343.55 272.614 345.029 271.73 346.497 270.556C346.789 270.556 347.382 270.556 347.674 270.847C347.966 271.138 348.268 271.73 347.966 272.022C346.789 274.672 343.249 278.196 340.01 278.196C338.24 278.196 335.886 277.021 335.293 274.963L335.342 274.983Z" fill="#C99C23" stroke="#C99C23" stroke-width="6.25781" stroke-miterlimit="10"/>
<path d="M692.907 146.209H684.368C682.899 146.209 680.837 146.501 679.067 146.501H676.12C672.59 146.501 668.758 146.501 665.217 146.209C659.032 145.617 652.846 145.035 646.66 144.743H643.421C642.828 144.743 642.245 144.452 641.651 144.452C638.413 144.452 632.519 149.161 630.748 151.51C618.97 168.558 608.359 187.383 598.05 205.315C591.572 216.489 584.501 227.663 578.607 239.129C569.767 255.595 553.865 289.701 546.502 307.05C545.617 309.108 542.378 317.049 539.14 324.098C535.609 331.738 532.361 337.913 531.184 337.913C528.83 337.622 526.467 334.971 526.467 332.622C526.175 332.331 526.758 331.738 527.06 330.855C527.352 330.564 527.653 330.263 527.653 329.971C527.945 329.379 528.246 329.088 528.246 328.797C529.131 324.088 529.715 319.68 530.6 314.981C532.069 308.215 533.839 302.632 537.963 297.05C545.325 285.875 551.219 273.526 555.927 260.886C565.643 238.838 579.784 217.372 592.749 197.082C560.644 219.431 528.538 242.362 497.026 266.177C494.672 267.944 492.309 270.002 492.309 273.235C482.884 291.167 469.044 309.991 450.186 318.515C449.009 318.807 447.832 319.108 446.655 319.108C444.302 319.108 442.531 317.642 442.24 315.282C442.24 304.7 461.682 289.118 469.044 283.235C475.23 278.526 481.124 273.827 487.31 269.119C487.602 267.352 487.903 265.594 488.487 263.828C489.08 262.362 489.955 260.886 490.257 259.119C490.85 253.537 489.965 248.537 489.08 243.246C487.31 233.838 483.186 225.605 479.947 216.78L478.177 217.664C453.142 239.42 427.223 260.886 400.126 279.701C390.994 286.167 373.613 297.05 362.127 297.05C356.233 297.05 352.109 294.7 350.349 288.526C349.755 285.293 349.755 282.351 350.942 278.827C352.411 273.245 354.181 267.653 357.419 262.653C358.013 261.187 358.305 260.002 358.596 258.536C358.596 257.653 358.888 256.478 359.481 256.187C364.198 252.663 366.26 247.071 369.791 242.663C375.977 235.022 390.118 217.673 401.011 217.673C403.073 217.673 404.843 218.266 406.604 218.848C410.728 220.615 412.498 226.197 410.134 231.197C403.657 244.721 381.559 257.653 367.719 261.478C363.002 267.06 361.242 274.119 358.587 280.885C357.41 284.71 357.993 286.176 361.825 289.701C372.135 288.235 381.559 283.235 390.692 277.944C418.08 261.187 449.894 235.605 474.637 214.732C475.814 213.848 476.699 212.674 477.876 211.79C476.991 208.848 476.699 205.907 475.814 203.557C473.46 197.091 477.584 189.15 486.415 185.917C487.592 185.917 488.477 185.917 489.654 186.509C492.299 187.684 493.486 190.033 493.184 193.276C493.184 197.392 492.007 201.218 489.352 204.451C488.175 206.509 486.697 208.276 484.937 210.625C488.769 220.033 492.299 229.149 494.954 238.848C496.423 243.847 496.725 248.847 496.131 253.847C495.839 256.789 495.839 259.43 495.538 262.963C497.892 261.197 499.954 260.022 502.015 258.556C521.458 244.148 541.192 230.032 560.926 215.926C570.058 209.159 579.483 202.693 588.616 195.936C594.509 191.529 600.102 187.111 604.226 180.645C610.12 170.063 616.305 159.772 623.075 149.481L626.022 144.773L625.73 144.481C624.845 143.307 623.376 143.307 622.199 143.307C621.908 143.307 621.606 143.307 621.314 143.015C603.049 142.132 584.793 140.074 566.528 138.899H563.873C560.041 138.899 556.51 139.19 552.97 139.19H550.023C546.784 138.899 543.244 138.598 540.005 138.307H535.288C524.978 138.307 499.059 139.19 499.351 153.889C499.642 165.063 502.298 169.18 508.182 177.704C509.067 178.587 509.359 179.762 509.359 180.645C509.65 182.412 508.474 184.17 506.703 183.878C500.809 183.587 491.978 161.238 491.978 155.064C491.385 134.773 513.482 130.656 531.738 130.656C534.685 130.656 537.33 130.656 539.986 130.948H540.871C542.339 130.948 543.818 130.656 545.286 130.656C546.171 130.365 548.233 130.064 549.118 130.064H550.003C555.897 130.656 561.782 130.948 567.967 131.53C572.675 131.53 577.392 132.122 582.109 132.996C597.427 135.647 613.621 136.821 629.231 137.705C629.824 137.705 630.408 137.414 630.7 137.113C632.47 135.938 633.647 134.462 634.824 132.996C641.009 124.763 646.903 116.822 653.089 108.589C660.452 98.5893 667.522 87.7158 675.77 78.5996C677.239 76.8326 681.071 74.7744 683.133 74.7744C684.601 74.7744 686.371 76.2404 686.371 77.7161C686.663 83.2985 681.362 90.0653 675.177 96.8224C671.938 100.055 668.699 103.288 665.752 106.521C662.805 109.463 660.16 112.696 658.39 115.346C655.151 120.929 651.027 126.229 646.903 131.812C646.31 132.695 645.726 133.278 645.133 134.161C644.54 135.045 644.248 135.928 643.956 137.103V137.695C644.841 138.87 646.018 139.161 647.487 139.161H648.372C656.911 139.753 665.159 140.627 673.698 141.219C680.176 141.51 686.955 141.811 693.724 141.811C705.211 141.811 716.113 140.928 727.298 137.986C729.36 137.394 730.829 137.103 732.307 137.103C733.484 137.103 734.661 137.394 734.661 138.87C734.661 143.87 698.14 146.219 692.839 146.219L692.907 146.209ZM403.375 227.062L401.605 225.295C392.472 226.761 377.747 244.11 374.216 252.051C383.932 247.935 401.021 237.935 403.375 227.062ZM448.435 311.147C447.842 312.03 447.842 312.914 448.435 313.496C463.462 306.739 475.532 292.914 483.196 278.215H482.311C480.842 278.215 480.249 279.099 479.364 279.681C472.001 286.439 464.337 293.205 456.975 299.972C453.142 303.205 450.497 307.03 448.435 311.147ZM486.726 191.49C485.549 192.664 484.071 193.548 482.311 195.315C482.311 198.256 482.019 200.606 482.019 203.256C482.019 203.548 482.612 204.14 482.904 204.14C483.497 204.431 484.081 204.431 484.373 204.14C486.726 202.082 489.08 197.082 489.381 194.14C489.381 192.965 488.205 191.791 486.726 191.49Z" fill="#C99C23" stroke="#C99C23" stroke-width="6.25781" stroke-miterlimit="10"/>
<path d="M182.342 317.38C161.538 331.224 138.605 343.466 114.076 349.854C94.8767 355.175 75.1427 356.777 53.8039 351.981C30.3351 347.185 12.2059 322.166 4.73639 300.875C-3.25836 276.381 1.53655 248.168 6.86638 224.741C13.2661 195.461 23.4005 167.238 35.665 140.093C53.269 101.764 76.7378 65.5612 103.397 31.4845C115.126 16.582 131.66 6.98999 147.669 0.601815C156.734 0.0678494 165.273 1.13578 171.673 6.98999C175.943 11.252 176.478 18.1741 176.478 22.9604C172.743 22.9604 171.148 21.8925 169.543 20.8343C168.473 20.3003 166.878 19.2324 165.273 19.2324C156.209 17.1062 147.669 18.1644 139.675 22.9604C131.145 27.7564 122.071 35.7368 115.671 44.2608C90.0721 77.2696 68.1984 112.405 51.139 149.141C33.0001 187.47 21.8055 227.935 19.1406 271.594C18.0707 285.973 21.2705 299.807 28.7401 310.991C37.2698 324.302 49.5439 333.35 64.4733 336.01C82.0773 339.204 100.741 335.476 117.811 330.156C136.475 324.836 154.079 315.244 170.613 303.535M170.613 303.545C192.477 287.575 224.485 256.158 235.68 232.741C245.814 210.382 249.549 186.422 245.279 159.801C243.149 148.617 240.474 136.375 234.61 125.725C230.34 118.268 225.545 112.414 218.611 107.618C212.746 103.89 207.941 100.696 201.007 100.696C196.202 100.162 191.942 97.5021 193.537 92.7061C197.272 89.512 200.472 88.4441 204.741 88.4441C213.806 88.4441 221.275 92.1721 228.21 96.9584C237.275 103.347 244.744 112.395 250.074 121.977C259.674 137.948 263.943 157.646 264.478 176.811C265.013 199.169 261.278 220.47 251.144 240.702C238.345 265.721 204.741 298.73 182.342 317.37" fill="#C99C23"/>
<path d="M182.342 317.38C161.539 331.224 138.605 343.466 114.076 349.854C94.8767 355.175 75.1427 356.777 53.8039 351.981C30.3352 347.185 12.2059 322.166 4.73639 300.875C-3.25836 276.381 1.53655 248.168 6.86638 224.741C13.2661 195.461 23.4005 167.238 35.665 140.093C53.269 101.764 76.7378 65.5612 103.397 31.4845C115.126 16.582 131.66 6.98999 147.669 0.601815C156.734 0.0678494 165.273 1.13578 171.673 6.98999C175.943 11.252 176.478 18.1741 176.478 22.9604C172.743 22.9604 171.148 21.8925 169.543 20.8343C168.473 20.3003 166.878 19.2324 165.273 19.2324C156.209 17.1062 147.669 18.1644 139.675 22.9604C131.145 27.7564 122.071 35.7368 115.671 44.2608C90.0721 77.2696 68.1984 112.405 51.139 149.141C33.0001 187.47 21.8055 227.935 19.1406 271.594C18.0707 285.973 21.2705 299.807 28.7401 310.991C37.2698 324.302 49.5439 333.35 64.4733 336.01C82.0773 339.204 100.741 335.476 117.811 330.156C136.475 324.836 154.079 315.244 170.613 303.535M170.613 303.545C192.477 287.575 224.485 256.158 235.68 232.741C245.814 210.382 249.549 186.422 245.279 159.801C243.149 148.617 240.474 136.375 234.61 125.725C230.34 118.268 225.545 112.414 218.611 107.618C212.746 103.89 207.941 100.696 201.006 100.696C196.202 100.162 191.942 97.5021 193.537 92.7061C197.272 89.512 200.472 88.4441 204.741 88.4441C213.806 88.4441 221.275 92.1721 228.21 96.9584C237.275 103.347 244.744 112.395 250.074 121.977C259.674 137.948 263.943 157.646 264.478 176.811C265.013 199.169 261.278 220.47 251.144 240.702C238.345 265.721 204.741 298.73 182.342 317.37" stroke="#C99C23" stroke-width="1.25156" stroke-miterlimit="10"/>
<path d="M77.8953 177.665C77.8953 177.665 115.778 218.382 139.13 239.838C162.706 261.498 187.478 281.963 214.895 299.128C235.135 311.797 255.822 323.894 277.2 334.777C298.976 345.874 322.221 356.971 346.682 361.495C365.784 365.029 385.761 361.961 388.484 340.554C388.553 346.272 389.185 351.748 388.484 357.243C382.629 403.29 308.469 366.786 286.089 355.893C236.234 331.632 189.822 301.73 148.905 265.352C121.925 241.362 77.905 194.354 77.905 194.354C77.905 194.354 77.905 179.626 77.905 177.665H77.8953Z" fill="#C99C23" stroke="#C99C23" stroke-width="1.40175" stroke-miterlimit="10"/>
</g>
<defs>
<clipPath id="clip0_1_839">
<rect width="737.17" height="380.475" fill="white"/>
</clipPath>
</defs>
</svg>
